<svg id="Layer_1" data-name="Layer 1" xmlns="http://www.w3.org/2000/svg" viewBox="0 0 311.3 371.94"><path d="M470.86,270.85a140.35,140.35,0,0,1,26.3-12.34c14.08-4.95,25.33-5.36,33-2.86,7.09,2.18,12,7.09,13.65,14.07a22.27,22.27,0,0,1-3.9,19c-5.5,7.79-15.6,14.43-27.8,19.6a69.12,69.12,0,0,1-10.26,3.7l11.67,32.13q-5.64,2.9-11.21,6Q486.59,310.53,470.86,270.85Zm27.92,32.76a69.53,69.53,0,0,0,10.83-3.69c15.36-6.29,23.44-15.05,20.56-26-2.73-10.4-14.5-12.85-30-7.33a67.31,67.31,0,0,0-12.75,5.85Q493.12,288,498.78,303.61Z" transform="translate(-470.86 -242.6)"/><path d="M572.76,247.79c.7,3.4-2.52,6.6-8.29,7.55-5.1.85-9.28-1.22-10-4.69s2.6-7.07,8.07-7.88C568.18,241.94,572.21,244.26,572.76,247.79Zm-2.26,74.09Q565,294,559.42,266q7.07-1.39,14.18-2.48,4.5,27.61,9,55.25Q576.53,320.2,570.5,321.88Z" transform="translate(-470.86 -242.6)"/><path d="M594.45,310.38a242.31,242.31,0,0,1,30.11-34.74c3.2-2.89,6.33-5.37,9.84-8.09v-.22a332.71,332.71,0,0,0-41.87,1.92l-.93-8a341.08,341.08,0,0,1,60.3-.58l-.45,5.7a228.82,228.82,0,0,0-33.19,30.06c-2.78,3.18-5.51,6.1-8.43,9.24v.23a299.66,299.66,0,0,1,40.46-2.19c-.13,2.43-.25,4.85-.38,7.27a294.06,294.06,0,0,0-54.75,5.13Z" transform="translate(-470.86 -242.6)"/><path d="M655.16,305.8a207.44,207.44,0,0,1,36.07-24.95c3.72-1.91,7.29-3.47,11.3-5.14l0-.18A335.2,335.2,0,0,0,661,268.85c.19-2.43.39-4.85.58-7.27a345.35,345.35,0,0,1,59.69,11.78q-.81,2.46-1.61,4.92A203.56,203.56,0,0,0,681,298c-3.34,2.27-6.56,4.33-10,6.56a1.36,1.36,0,0,0,0,.2,294.2,294.2,0,0,1,39.9,6.11l-1.86,6.3a287,287,0,0,0-54.23-6.1C654.92,309.3,655,307.55,655.16,305.8Z" transform="translate(-470.86 -242.6)"/><path d="M756.67,331.69q.87-2.47,1.73-5l-.4-.16c-5.25,1.38-13.38,1.41-22.48-1.43-12.88-3.93-17.7-11.38-15.73-17.67,3.12-10.28,20.9-12.26,48.13.07l.43-.76c1.7-2.93,3.29-9.45-11.85-15.85A53.76,53.76,0,0,0,736,286.72c-.41-2-.84-4-1.29-6,7-.19,16.8,1.76,26.29,5.83,23.08,10.28,23.45,21.09,18.88,27.79l-8.48,13a35.3,35.3,0,0,0-4.41,8.8Q761.85,333.79,756.67,331.69Zm8.92-19.41c-13.51-6.35-30.06-10.24-33.08-2.14-1.87,4.85,2.42,8.63,8.47,10.68,8.47,2.86,15.42,2,19.12-.33a5.91,5.91,0,0,0,1.88-1.84C763.18,316.53,764.38,314.4,765.59,312.28Z" transform="translate(-470.86 -242.6)"/><path d="M718.37,340.76a48.05,48.05,0,0,0-15.29,13.71c-6.36,9.11-5.89,16.55-.82,19.19,4.79,2.49,9.54,0,18.55-7.68,10.75-9.46,20.8-13.44,27.76-9.66,7.8,4.23,6,15.09-3.05,27.81-4.75,6.72-9,11.16-12,13.58q-1.86-2.46-3.7-4.95a57.84,57.84,0,0,0,10.67-11.57c6.41-9,5.28-14.32,1.84-16.14-4.59-2.44-10.24.18-19.31,8.11-11,9.75-18.1,13.94-25.59,10.13-7.67-3.89-10.74-16,.61-32.44,4.66-6.68,11.78-12.92,16.61-15.37C715.9,337.25,717.13,339,718.37,340.76Z" transform="translate(-470.86 -242.6)"/><path d="M729.76,414.26q-2.26,4.51-4.27,9.1-25.29-11.55-52.28-24.85c1.29-3.27,2.66-6.53,4.12-9.75Q704.32,402.41,729.76,414.26Z" transform="translate(-470.86 -242.6)"/><path d="M667.45,415.17q18.3,8.7,35.81,16.57c-1,3.17-2,6.37-2.87,9.57q-17.42-7.63-35.67-16.1Q665.95,420.17,667.45,415.17Zm42.35,31.46c-2.14-.81-3.24-3.94-2.08-7.73,1-3.35,3.56-4.93,5.7-4s3.05,4.18,2,7.59S712,447.57,709.8,446.63Z" transform="translate(-470.86 -242.6)"/><path d="M660.5,482.78a52.32,52.32,0,0,1-2.19-17.07c.6-17.15,10.51-24.74,21.3-19.93,11.06,4.84,15.9,19.31,15,36.81a56.75,56.75,0,0,1-1.86,12.9l-4.81-4c.8-2,1.52-5.42,1.75-10.79.59-12.4-4-21.51-11.43-24.67-8.16-3.52-14.54,2.54-14.83,13.73A42.4,42.4,0,0,0,665.26,483Z" transform="translate(-470.86 -242.6)"/><path d="M677,505.33c-8.42-2.92-10.91,4.53-8.44,14.63a62,62,0,0,0,6.09,15.81l-3.87.22a72.5,72.5,0,0,1-7.42-19.14c-4-17.28,2.9-24.89,13.22-20.86,10.53,4,18.58,16.48,21.72,31.87,3.86,17.2-3,18.75-9.29,16.85a23.79,23.79,0,0,1-2.92-1.23A187.37,187.37,0,0,1,677,505.33Zm10.49,30.5c4,1.36,8.75.68,6.38-10.19-2-9.79-8-16.19-12.41-18.56A185.39,185.39,0,0,0,687.49,535.83Z" transform="translate(-470.86 -242.6)"/><path d="M562.58,364.08a158.45,158.45,0,0,1,8.27,16.14c3.95,8.8,5,14.3,3.31,18.34-1.27,3.26-4.64,5.26-9.33,5.54-8,.5-15.63-4.55-20.65-11.59h-.27c.54,5.22-2.46,8.46-8,10.39-7.41,2.64-12.48,4.64-14.2,6.23q-1.79-4.65-3.55-9.37c1.23-1.23,5.69-3,12.29-5.2,7.37-2.33,9-6,6.08-14.05q-1.65-4.2-3.28-8.48-12.72-.21-25.17-.45-1.63-4.79-3.26-9.65C523.61,362.68,542.8,363.4,562.58,364.08ZM539,372.14q1.79,4.58,3.6,9.08c3.77,9.43,10.74,15,17.65,14.69,7.82-.35,8.59-6.29,4.81-15.09a58.22,58.22,0,0,0-4.32-8.34Z" transform="translate(-470.86 -242.6)"/><path d="M547.81,422.36c-10.55,1.16-11.8,9.16-8.18,17.63a40.15,40.15,0,0,0,7.83,12.31l-5.06,2.33a49.33,49.33,0,0,1-9.35-15c-6.07-14.66-1-24.55,12-25.44s27.08,6.29,33.16,18.51c6.82,13.62-4.13,19.19-12.24,20.69a32,32,0,0,1-3.86.38Q554.88,438.64,547.81,422.36Zm16.54,23.16c5.14-.73,12-4,7.81-12.7-3.82-7.87-12.89-10.77-18.66-10.91Q558.89,434,564.35,445.52Z" transform="translate(-470.86 -242.6)"/><path d="M562.65,497.57a34.12,34.12,0,0,1-8.52-11.29c-6.19-12.91-1.21-23.5,12.27-25.91a33.94,33.94,0,0,1,34.91,16.19,20.69,20.69,0,0,1,3,9.86c-2.39.07-4.78.14-7.17.19.2-1.91-.23-4.7-2.32-8.45-4.84-8.64-15-12.06-24.25-10.18-10.24,2.07-13.46,9.84-9.36,18.14a26.46,26.46,0,0,0,6.84,8.56Z" transform="translate(-470.86 -242.6)"/><path d="M606.92,531.61c-16.54,6.61-29.17.15-34.24-9.23-5.67-10.46-1.2-21.5,12.9-25.39,14.94-4.15,28.42,1.14,34.26,10.19C625.89,516.57,620.6,526.13,606.92,531.61Zm-17.19-27.8c-9.79,2.92-14.52,10.11-10.78,16.84s13.69,8.56,23.77,4.78c7.58-2.87,15.44-9.14,10.9-16.31S598.22,501.24,589.73,503.81Z" transform="translate(-470.86 -242.6)"/><path d="M619.79,535.8c5.26-2.2,9.74-4.15,13.78-6.07,1.1,1.58,2.21,3.15,3.31,4.7l-8.64,4,.17.25c7-1.22,13,.23,15.52,3.6a4.69,4.69,0,0,1,.79,1.56l-7.63,3.61a6.94,6.94,0,0,0-1-1.9c-2.66-3.65-8.88-4.43-15.49-2.55a33.9,33.9,0,0,0-4,1.39q-11.89,5.19-23.82,10.34c-1.26-2-2.53-4.09-3.79-6.18Q604.41,542.21,619.79,535.8Z" transform="translate(-470.86 -242.6)"/><path d="M685,557.93q-26.28,15.77-52.79,31.39c-3.91,2.3-8.33,5-11.21,6.9-1.13-1.5-2.26-3-3.39-4.57l7.51-4.58-.09-.12c-6.08,1.27-12.38-.17-15.79-5.11-5.07-7.39.15-17.8,13.67-24.18,14.77-7.06,28.1-5.82,33,.17,3.09,3.81,2,8-.64,11.19l.08.1q13.08-7.5,26.12-15Q683.28,556.05,685,557.93Zm-41.79,18.13a24.87,24.87,0,0,0,3.19-2.12c4.53-3.6,6.71-8.37,4-11.83-3.81-4.77-13.43-4.14-23.25.75-9,4.46-14.36,11.26-10.27,17.07,2.54,3.58,8.43,4.75,15.12,2.22a24.85,24.85,0,0,0,3.63-1.74Z" transform="translate(-470.86 -242.6)"/><path d="M634.72,598.44c-.44,2.33-.13,5.78,1.71,8,2.68,3.28,6.8,2.8,10.37.37,3.75-2.54,4.78-5.1,4.26-9.61-.81-6,1.81-10.73,7-14,7-4.35,15.28-5.07,19.38-.8a7.74,7.74,0,0,1,2,6.66q-3.24,1.54-6.5,3.06a6.57,6.57,0,0,0-1.45-5.87c-2.07-2.21-5.91-1.78-9.13.3-3.57,2.31-4,4.71-3.58,9,.56,5.72-1.42,10.22-7.82,14.72-7.55,5.31-15.66,5.89-20.52-.19a12.46,12.46,0,0,1-2.76-9.16C630.06,600.16,632.39,599.31,634.72,598.44Z" transform="translate(-470.86 -242.6)"/></svg>